<svg width="131" height="41" viewBox="0 0 131 41" fill="none" xmlns="http://www.w3.org/2000/svg">
<path d="M85.7325 18.1883C83.0672 14.1995 78.4788 11.5488 73.1996 11.5488C64.8393 11.5488 58.2085 18.1892 58.2085 26.2734C58.2085 34.3576 64.8393 40.9979 73.1996 40.9979C78.4811 40.9979 83.0686 38.3472 85.7325 34.3584V18.1883ZM73.1996 33.7803C69.1636 33.7803 65.9924 30.6041 65.9924 26.2737C65.9924 21.9432 69.1636 18.767 73.1996 18.767C77.2355 18.767 80.407 21.9426 80.407 26.2737C80.407 30.6047 77.2335 33.7803 73.1973 33.7803H73.1996Z" fill="white"></path>
<path d="M37.052 18.4186C34.7809 14.0506 30.7504 11.5489 26.2891 11.5489C23.2343 11.5489 21.1 12.704 19.5432 13.8588C18.6776 14.553 17.9282 15.3024 17.3509 16.1681H17.0626V0H9.2793V40.421H13.3878C16.4297 40.421 16.9812 38.2066 17.0632 37.0561V36.3788C17.6396 37.2451 18.6776 37.9953 19.5426 38.6887C21.0994 39.8435 23.2326 40.9983 26.2885 40.9983C30.6351 40.9983 34.6873 38.4359 36.9943 34.2656C33.1756 26.7615 36.0071 20.2427 37.052 18.4186ZM23.982 33.7804C19.946 33.7804 16.7748 30.6042 16.7748 26.2737C16.7748 21.9433 19.946 18.7671 23.982 18.7671C28.018 18.7671 31.1895 21.9427 31.1895 26.2737C31.1895 30.6048 28.0183 33.7804 23.982 33.7804Z" fill="#C41320"></path>
<path d="M57.444 31.7599C57.3247 31.8569 57.2067 31.9549 57.0831 32.0479C55.8721 32.9142 54.1426 33.7805 52.0091 33.7805C47.9732 33.7805 44.8017 30.6043 44.8017 26.2738C44.8017 22.4938 47.2177 19.5943 50.5157 18.9179C50.8771 18.8437 51.2436 18.7969 51.612 18.778H51.6186C51.6485 18.7763 51.6788 18.7763 51.7088 18.7752C52.7562 18.76 53.6444 18.6119 54.3958 18.3703C58.492 17.0551 58.554 12.9966 58.554 12.9966C57.5057 12.5037 56.4396 12.1832 55.6705 11.9902L55.6737 11.9744C55.3696 11.901 55.0539 11.8378 54.7316 11.7817C53.8328 11.626 52.9223 11.5483 52.0103 11.5496C50.8357 11.5498 49.665 11.6846 48.521 11.9513C41.878 13.4952 37.0181 19.3542 37.0181 26.2756C37.0181 34.3598 43.6488 41.0001 52.0091 41.0001C56.0714 41.0001 59.0835 39.1951 61.0985 37.7627C61.0985 37.761 58.4558 35.1026 57.444 31.7599Z" fill="white"></path>
<path d="M121.197 11.5488C118.142 11.5488 115.892 12.8194 114.336 14.0317C113.413 14.7248 112.606 15.5333 111.972 16.4571H111.684C111.181 15.5534 110.538 14.7349 109.781 14.0317C108.455 12.8194 106.321 11.5488 103.323 11.5488C100.554 11.5488 98.7103 12.7039 97.3851 13.8587C96.6357 14.5515 95.7709 15.3023 95.2516 16.168C95.2802 12.5009 92.3585 12.1518 91.5331 12.1261H87.4678V40.421H95.2516V24.8301C95.2516 21.3654 97.5004 19.0546 100.729 19.0546C103.67 19.0546 105.342 20.7292 105.342 23.9629V40.4201H113.126V24.8301C113.126 21.3654 115.375 19.0546 118.604 19.0546C121.544 19.0546 123.216 20.7292 123.216 23.9629V37.0886C123.296 38.1948 123.867 40.427 127.162 40.421H131V22.8087C130.999 15.8796 126.732 11.5488 121.197 11.5488Z" fill="white"></path>
<path d="M3.60459 40.2448C5.59535 40.2448 7.20918 38.6286 7.20918 36.6348C7.20918 34.6411 5.59535 33.0249 3.60459 33.0249C1.61383 33.0249 0 34.6411 0 36.6348C0 38.6286 1.61383 40.2448 3.60459 40.2448Z" fill="#C41320"></path>
</svg>