<?xml version="1.0" encoding="utf-8"?>
<!-- Svg Vector Icons : http://www.onlinewebfonts.com/icon -->
<!DOCTYPE svg PUBLIC "-//W3C//DTD SVG 1.1//EN" "http://www.w3.org/Graphics/SVG/1.1/DTD/svg11.dtd">
<svg version="1.1" xmlns="http://www.w3.org/2000/svg" xmlns:xlink="http://www.w3.org/1999/xlink" x="0px" y="0px" viewBox="0 0 256 256" enable-background="new 0 0 256 256" xml:space="preserve">
<metadata> Svg Vector Icons : http://www.onlinewebfonts.com/icon </metadata>
<g><g><g><path fill="white" d="M118.6,10.7c-15.3,2.6-30.1,12.3-39,25.7c-7.1,10.7-10,21.6-10,37.4v5.8L67.1,81c-3.1,1.7-5.7,4.6-7.3,8.1l-1.2,2.6v20v20l1.3,2.7c1.6,3.5,5.3,7.2,8.7,8.7c2,0.9,3.7,1.3,7,1.5l4.3,0.2l1.5,3.6c1.8,4.6,6.9,12.2,11.4,17.2l3.3,3.8l-0.1,4.3c-0.2,4.2-0.2,4.4-2.2,7c-6.8,9.1-29.1,22.1-56.8,33.3c-5.8,2.4-8,4-9.9,7.5c-1.3,2.4-1.4,3-1.6,8.1c-0.2,5.5-0.2,5.6,1.3,8.6c0.9,1.9,2.3,3.7,3.5,4.7c4.1,3.3-4.4,3.1,97.9,3.1h92.5l2.4-1.2c2.6-1.3,5.1-3.9,6.5-6.7c0.6-1.3,0.9-3.1,1-7.3c0.2-5.4,0.1-5.7-1.3-8.6c-2-4-4.2-5.8-10.3-8.2c-26.7-10.6-49.8-24.2-56.7-33.2c-1.6-2.1-1.9-3-2-4.8l-0.1-2.3l5.2-1.3c16.6-4.3,24.9-13.2,26.6-28.5c0.4-3.5,0.6-4.1,2.1-5.8c0.9-1.1,2.1-3.2,2.6-4.5c0.9-2.4,0.9-3.7,0.9-21.8c0-18.4,0-19.4-1-21.9c-1.2-3.2-5.3-7.8-8.2-9.2l-2-1l-0.3-9c-0.2-10-0.9-14.5-3.3-21c-6.4-18.1-21.3-32.2-39.5-37.5C135.7,9.9,126.6,9.4,118.6,10.7z M140.4,21.5c8.7,2.2,16,6.4,22.1,12.6c7.9,7.9,12.6,18.1,13.5,29.4c0.2,2.6,0.3,4.8,0.2,4.9c0,0.1-0.6-1.3-1.1-3.1c-1.2-3.5-3.7-8.9-5.3-11.2c-1.8-2.6-6.6-7.4-9.3-9.2c-9.3-6.3-19.7-8.8-35.1-8.3c-11.5,0.4-17.3,1.7-25.4,5.9c-2.9,1.5-5.4,3.3-8,5.7c-5.3,5-8.2,9.5-10.8,16.8l-1.4,3.8l0.2-4.7c0.4-8,2.9-15.5,7.6-22.8c7.3-11.2,19.6-18.9,33.3-20.8C126.2,19.6,135.2,20.1,140.4,21.5z M137.4,46.7c16.4,2,25.2,9,28.9,22.7c1,3.9,1,4.3,1,37.8v33.9l-2.2,4.5c-2.4,5-5.3,9.1-10.9,15.2l-3.8,4.1h-4.3h-4.3l-2.3-2.6c-5.8-6.6-13.3-6.8-19.2-0.4c-4.9,5.3-4.8,11.3,0,16.8c2,2.3,6.6,4.5,9.4,4.5c3.9,0,8.7-3,11.4-7c0.7-1,1.1-1.2,4.8-1.4l4.1-0.2v2.4c0,11.2,25.9,30,61.5,44.6c4.1,1.7,7.9,3.3,8.2,3.5c0.9,0.5,1.3,8.5,0.5,9.9c-0.5,0.9-0.9,0.9-92.3,0.9c-91.4,0-91.8,0-92.3-0.9c-0.8-1.5-0.4-9.5,0.5-9.9c0.4-0.2,4.1-1.8,8.2-3.5c25.5-10.5,49.8-25.5,57.5-35.7c3.8-5,4.1-6,3.9-13.9l-0.1-7l-4.4-4.9c-4.9-5.5-7.2-8.7-9.5-13.2c-3.5-6.9-3.3-4.9-3.3-37.9c0-35.9,0.2-38.6,4.2-46.7c3.3-6.6,9.8-11.9,17.5-14.1C116.9,46.4,129,45.7,137.4,46.7z M78.3,111.7v22.8l-3.3-0.1c-3.4-0.1-5-0.8-6-2.6c-0.7-1.2-1.2-31.6-0.6-37c0.4-4,1.6-5.4,5-5.8c1.4-0.2,3.1-0.3,3.7-0.2l1.2,0L78.3,111.7L78.3,111.7z M185.3,89.7c2.4,1.2,2.5,2.1,2.5,22.1c0,13.8-0.1,18.8-0.6,19.6c-0.8,1.7-3.3,2.9-6.5,3.2l-2.8,0.3v-23.2V88.6l3.2,0.3C182.9,89.1,184.8,89.4,185.3,89.7z M181.7,145.6c0,1.4-1.7,5.9-3,7.9c-2.1,3.3-5.7,6.1-9.7,7.7l-2.4,1l2.6-3.7c1.4-2.1,3.7-6,5-8.7l2.4-5h2.5C181.3,144.7,181.7,144.8,181.7,145.6z M132.2,167.9c0.3,0.3,0.6,1.5,0.6,2.6c0,1.5-0.2,2.1-0.9,2.5c-1.3,0.7-3,0.6-4.1-0.2c-1.1-0.8-1.3-4.3-0.2-5C128.5,167.1,131.5,167.2,132.2,167.9z"/></g></g></g>
</svg>