<svg fill="none" height="24" viewBox="0 0 24 24" width="24" xmlns="http://www.w3.org/2000/svg"><path d="m15 5h-10c-1.10457 0-2 .89543-2 2v10h1.26756c.34581-.5978.99216-1 1.73244-1m9-11v7m0-7v3m0 0h3c1.6569 0 3 1.34315 3 3v1m-6-4v4m0 4c-.7403 0-1.3866.4022-1.7324 1m1.7324-1c.3643 0 .7058.0974 1 .2676.3036.1756.5568.4288.7324.7324m-1.7324-1v-4m-1.7324 5c-.1702.2942-.2676.6357-.2676 1 0 1.1046.8954 2 2 2s2-.8954 2-2c0-.3643-.0974-.7058-.2676-1m-3.4648 0h-5.53516c-.34581-.5978-.99216-1-1.73244-1m0 0c-1.10457 0-2 .8954-2 2s.89543 2 2 2 2-.8954 2-2-.89543-2-2-2zm10.7324 1h3.2676c.5523 0 1-.4477 1-1v-4m0 0h-6" stroke="white" stroke-linejoin="round"/></svg>